<svg id="Layer_1" data-name="Layer 1" xmlns="http://www.w3.org/2000/svg" xmlns:xlink="http://www.w3.org/1999/xlink" viewBox="0 0 512 512"><defs><linearGradient id="linear-gradient" x1="256" y1="497.04" x2="256" y2="14.96" gradientUnits="userSpaceOnUse"><stop offset="0" stop-color="#231f20"/><stop offset="1" stop-color="#58595b"/></linearGradient></defs><title>fast_forward</title><path d="M499.28,234,282.64,79c-17-12.15-30.84-4.94-30.84,16V237.76a30.62,30.62,0,0,0-4.34-3.79L30.84,79C13.89,66.9,0,74.11,0,95V417c0,20.92,13.89,28.09,30.84,16l216.63-154.9a33.43,33.43,0,0,0,4.34-3.79V417c0,20.92,13.88,28.09,30.84,16l216.64-154.9C516.24,265.93,516.24,246.05,499.28,234Z" fill-rule="evenodd" fill="url(#linear-gradient)"/></svg>