<svg id="Layer_1" data-name="Layer 1" xmlns="http://www.w3.org/2000/svg" xmlns:xlink="http://www.w3.org/1999/xlink" viewBox="0 0 512 512"><defs><linearGradient id="linear-gradient" x1="3885.77" y1="-2983.4" x2="3885.77" y2="-2501.31" gradientTransform="translate(4141.77 -2486.36) rotate(180)" gradientUnits="userSpaceOnUse"><stop offset="0" stop-color="#231f20"/><stop offset="1" stop-color="#58595b"/></linearGradient></defs><title>rewind</title><path d="M12.72,278.06,229.36,433c17,12.13,30.84,5,30.84-16V274.26a33.55,33.55,0,0,0,4.33,3.79L481.14,433c17,12.13,30.86,5,30.86-16V95c0-20.92-13.9-28.13-30.86-16L264.53,233.95a32.26,32.26,0,0,0-4.33,3.81V95c0-20.92-13.88-28.13-30.84-16L12.72,233.95C-4.24,246.05-4.24,265.93,12.72,278.06Z" fill-rule="evenodd" fill="url(#linear-gradient)"/></svg>